<mxfile host="Electron" modified="2023-05-15T10:35:11.135Z" agent="Mozilla/5.0 (Windows NT 10.0; Win64; x64) AppleWebKit/537.36 (KHTML, like Gecko) draw.io/21.2.8 Chrome/112.0.5615.165 Electron/24.2.0 Safari/537.36" etag="ub9poGL3OMez_uMrgqkE" version="21.2.8" type="device" pages="3">
  <diagram id="6ISztqVL133dhFMmdFjb" name="Back-end">
    <mxGraphModel dx="2074" dy="1196" grid="1" gridSize="10" guides="1" tooltips="1" connect="1" arrows="1" fold="1" page="1" pageScale="1" pageWidth="1169" pageHeight="1654" math="0" shadow="0">
      <root>
        <mxCell id="WuY8b1AVpgEEGS5DV7i4-0" />
        <mxCell id="WuY8b1AVpgEEGS5DV7i4-1" parent="WuY8b1AVpgEEGS5DV7i4-0" />
        <mxCell id="sBl0nQXo4yE9vkARrBhZ-0" value="&lt;h1&gt;Legend&lt;/h1&gt;&lt;p&gt;&lt;font color=&quot;#00ff00&quot;&gt;&lt;b&gt;Must have&lt;/b&gt;&lt;/font&gt;&lt;/p&gt;&lt;p&gt;&lt;font color=&quot;#00ffff&quot;&gt;&lt;b&gt;Should have&lt;/b&gt;&lt;/font&gt;&lt;/p&gt;" style="text;html=1;strokeColor=none;fillColor=none;spacing=5;spacingTop=-20;whiteSpace=wrap;overflow=hidden;rounded=0;" parent="WuY8b1AVpgEEGS5DV7i4-1" vertex="1">
          <mxGeometry x="30" y="115" width="100" height="105" as="geometry" />
        </mxCell>
        <mxCell id="IOmI-iX0Zj-S42RIqmGF-36" value="FPGA" style="text;html=1;strokeColor=#E6E6E6;fillColor=none;align=center;verticalAlign=middle;whiteSpace=wrap;rounded=0;movable=1;resizable=1;rotatable=1;deletable=1;editable=1;locked=0;connectable=1;strokeWidth=2;" parent="WuY8b1AVpgEEGS5DV7i4-1" vertex="1">
          <mxGeometry x="30" y="220" width="80" height="770" as="geometry" />
        </mxCell>
        <mxCell id="PCr-WVekXkje4e08h1MV-130" value="&lt;div&gt;&lt;br&gt;&lt;br&gt;&lt;p class=&quot;MsoNormal&quot;&gt;&lt;br&gt;&lt;/p&gt;&lt;br&gt;&lt;/div&gt;" style="rounded=0;whiteSpace=wrap;html=1;strokeColor=#00FF00;strokeWidth=2;" parent="WuY8b1AVpgEEGS5DV7i4-1" vertex="1">
          <mxGeometry x="410" y="220" width="120" height="350" as="geometry" />
        </mxCell>
        <mxCell id="PCr-WVekXkje4e08h1MV-216" style="edgeStyle=orthogonalEdgeStyle;rounded=0;orthogonalLoop=1;jettySize=auto;html=1;fontColor=#000000;" parent="WuY8b1AVpgEEGS5DV7i4-1" edge="1">
          <mxGeometry relative="1" as="geometry">
            <mxPoint x="410" y="240.32999999999998" as="targetPoint" />
            <Array as="points">
              <mxPoint x="410" y="240.32999999999998" />
            </Array>
            <mxPoint x="370" y="240.32999999999998" as="sourcePoint" />
          </mxGeometry>
        </mxCell>
        <mxCell id="PCr-WVekXkje4e08h1MV-219" value="" style="endArrow=classic;html=1;rounded=0;fontColor=#000000;entryX=0;entryY=0.5;entryDx=0;entryDy=0;exitX=0;exitY=1;exitDx=0;exitDy=0;" parent="WuY8b1AVpgEEGS5DV7i4-1" source="PCr-WVekXkje4e08h1MV-226" edge="1">
          <mxGeometry width="50" height="50" relative="1" as="geometry">
            <mxPoint x="140" y="240.32999999999998" as="sourcePoint" />
            <mxPoint x="250" y="240.32999999999998" as="targetPoint" />
          </mxGeometry>
        </mxCell>
        <mxCell id="PCr-WVekXkje4e08h1MV-226" value="I2S (CH1/CH2)" style="text;html=1;strokeColor=none;fillColor=none;align=left;verticalAlign=middle;whiteSpace=wrap;rounded=0;fontColor=#000000;" parent="WuY8b1AVpgEEGS5DV7i4-1" vertex="1">
          <mxGeometry x="110" y="220.32999999999998" width="100" height="20" as="geometry" />
        </mxCell>
        <mxCell id="PCr-WVekXkje4e08h1MV-271" value="SCKI&amp;nbsp;(24 576 MHz)" style="text;html=1;strokeColor=none;fillColor=none;align=left;verticalAlign=middle;whiteSpace=wrap;rounded=0;fontColor=#000000;" parent="WuY8b1AVpgEEGS5DV7i4-1" vertex="1">
          <mxGeometry x="110" y="250.32999999999998" width="120" height="20" as="geometry" />
        </mxCell>
        <mxCell id="PCr-WVekXkje4e08h1MV-466" style="edgeStyle=orthogonalEdgeStyle;rounded=0;orthogonalLoop=1;jettySize=auto;html=1;exitX=0.5;exitY=1;exitDx=0;exitDy=0;fontColor=#000000;" parent="WuY8b1AVpgEEGS5DV7i4-1" edge="1">
          <mxGeometry relative="1" as="geometry">
            <mxPoint x="190" y="270" as="sourcePoint" />
            <mxPoint x="190" y="270" as="targetPoint" />
          </mxGeometry>
        </mxCell>
        <mxCell id="zNKPQ8qLzwGXQE3YcGZi-2" value="" style="endArrow=none;html=1;rounded=0;" parent="WuY8b1AVpgEEGS5DV7i4-1" edge="1">
          <mxGeometry width="50" height="50" relative="1" as="geometry">
            <mxPoint x="210" y="250" as="sourcePoint" />
            <mxPoint x="220" y="230" as="targetPoint" />
          </mxGeometry>
        </mxCell>
        <mxCell id="zNKPQ8qLzwGXQE3YcGZi-3" value="3" style="text;html=1;strokeColor=none;fillColor=none;align=center;verticalAlign=middle;whiteSpace=wrap;rounded=0;" parent="WuY8b1AVpgEEGS5DV7i4-1" vertex="1">
          <mxGeometry x="200" y="220" width="20" height="20" as="geometry" />
        </mxCell>
        <mxCell id="zNKPQ8qLzwGXQE3YcGZi-129" style="edgeStyle=orthogonalEdgeStyle;rounded=0;orthogonalLoop=1;jettySize=auto;html=1;entryX=0;entryY=0.5;entryDx=0;entryDy=0;fontColor=#000000;exitX=1;exitY=0.25;exitDx=0;exitDy=0;" parent="WuY8b1AVpgEEGS5DV7i4-1" source="zNKPQ8qLzwGXQE3YcGZi-130" target="zNKPQ8qLzwGXQE3YcGZi-136" edge="1">
          <mxGeometry relative="1" as="geometry">
            <Array as="points">
              <mxPoint x="890" y="250" />
              <mxPoint x="890" y="190" />
            </Array>
          </mxGeometry>
        </mxCell>
        <mxCell id="4LS1Kl3ii9mYnfeb8qvd-162" style="edgeStyle=orthogonalEdgeStyle;rounded=0;orthogonalLoop=1;jettySize=auto;html=1;entryX=0;entryY=0.5;entryDx=0;entryDy=0;" parent="WuY8b1AVpgEEGS5DV7i4-1" source="zNKPQ8qLzwGXQE3YcGZi-130" target="zNKPQ8qLzwGXQE3YcGZi-135" edge="1">
          <mxGeometry relative="1" as="geometry" />
        </mxCell>
        <mxCell id="zNKPQ8qLzwGXQE3YcGZi-130" value="Buffer" style="rounded=0;whiteSpace=wrap;html=1;strokeColor=#00FF00;strokeWidth=2;" parent="WuY8b1AVpgEEGS5DV7i4-1" vertex="1">
          <mxGeometry x="750" y="240" width="120" height="40" as="geometry" />
        </mxCell>
        <mxCell id="zNKPQ8qLzwGXQE3YcGZi-131" style="edgeStyle=orthogonalEdgeStyle;rounded=0;orthogonalLoop=1;jettySize=auto;html=1;exitX=1;exitY=0.5;exitDx=0;exitDy=0;entryX=0;entryY=0.5;entryDx=0;entryDy=0;" parent="WuY8b1AVpgEEGS5DV7i4-1" source="zNKPQ8qLzwGXQE3YcGZi-132" target="zNKPQ8qLzwGXQE3YcGZi-130" edge="1">
          <mxGeometry relative="1" as="geometry" />
        </mxCell>
        <mxCell id="zNKPQ8qLzwGXQE3YcGZi-132" value="LPF" style="rounded=0;whiteSpace=wrap;html=1;strokeColor=#00FF00;strokeWidth=2;" parent="WuY8b1AVpgEEGS5DV7i4-1" vertex="1">
          <mxGeometry x="590" y="240" width="120" height="40" as="geometry" />
        </mxCell>
        <mxCell id="zNKPQ8qLzwGXQE3YcGZi-133" style="edgeStyle=orthogonalEdgeStyle;rounded=0;orthogonalLoop=1;jettySize=auto;html=1;exitX=0.5;exitY=1;exitDx=0;exitDy=0;" parent="WuY8b1AVpgEEGS5DV7i4-1" edge="1">
          <mxGeometry relative="1" as="geometry">
            <mxPoint x="980.71" y="292.5" as="sourcePoint" />
            <mxPoint x="980.71" y="292.5" as="targetPoint" />
          </mxGeometry>
        </mxCell>
        <mxCell id="zNKPQ8qLzwGXQE3YcGZi-134" value="XLR" style="rounded=0;whiteSpace=wrap;html=1;strokeColor=#00FF00;strokeWidth=2;" parent="WuY8b1AVpgEEGS5DV7i4-1" vertex="1">
          <mxGeometry x="910" y="310" width="120" height="40" as="geometry" />
        </mxCell>
        <mxCell id="zNKPQ8qLzwGXQE3YcGZi-135" value="6.35 mm Jack" style="rounded=0;whiteSpace=wrap;html=1;strokeColor=#00FF00;strokeWidth=2;" parent="WuY8b1AVpgEEGS5DV7i4-1" vertex="1">
          <mxGeometry x="910" y="240" width="120" height="40" as="geometry" />
        </mxCell>
        <mxCell id="zNKPQ8qLzwGXQE3YcGZi-136" value="RCA" style="rounded=0;whiteSpace=wrap;html=1;strokeColor=#00FF00;strokeWidth=2;" parent="WuY8b1AVpgEEGS5DV7i4-1" vertex="1">
          <mxGeometry x="910" y="170" width="120" height="40" as="geometry" />
        </mxCell>
        <mxCell id="zNKPQ8qLzwGXQE3YcGZi-137" style="edgeStyle=orthogonalEdgeStyle;rounded=0;orthogonalLoop=1;jettySize=auto;html=1;exitX=0.5;exitY=1;exitDx=0;exitDy=0;" parent="WuY8b1AVpgEEGS5DV7i4-1" edge="1">
          <mxGeometry relative="1" as="geometry">
            <mxPoint x="990.71" y="302.5" as="sourcePoint" />
            <mxPoint x="990.71" y="302.5" as="targetPoint" />
          </mxGeometry>
        </mxCell>
        <mxCell id="zNKPQ8qLzwGXQE3YcGZi-138" style="edgeStyle=orthogonalEdgeStyle;rounded=0;orthogonalLoop=1;jettySize=auto;html=1;exitX=1;exitY=0.25;exitDx=0;exitDy=0;entryX=0;entryY=0.25;entryDx=0;entryDy=0;" parent="WuY8b1AVpgEEGS5DV7i4-1" source="zNKPQ8qLzwGXQE3YcGZi-140" target="zNKPQ8qLzwGXQE3YcGZi-134" edge="1">
          <mxGeometry relative="1" as="geometry" />
        </mxCell>
        <mxCell id="zNKPQ8qLzwGXQE3YcGZi-139" style="edgeStyle=orthogonalEdgeStyle;rounded=0;orthogonalLoop=1;jettySize=auto;html=1;exitX=1;exitY=0.75;exitDx=0;exitDy=0;entryX=0;entryY=0.75;entryDx=0;entryDy=0;" parent="WuY8b1AVpgEEGS5DV7i4-1" source="zNKPQ8qLzwGXQE3YcGZi-140" target="zNKPQ8qLzwGXQE3YcGZi-134" edge="1">
          <mxGeometry relative="1" as="geometry" />
        </mxCell>
        <mxCell id="zNKPQ8qLzwGXQE3YcGZi-140" value="Buffer" style="rounded=0;whiteSpace=wrap;html=1;strokeColor=#00FF00;strokeWidth=2;" parent="WuY8b1AVpgEEGS5DV7i4-1" vertex="1">
          <mxGeometry x="750" y="310" width="120" height="40" as="geometry" />
        </mxCell>
        <mxCell id="zNKPQ8qLzwGXQE3YcGZi-141" style="edgeStyle=orthogonalEdgeStyle;rounded=0;orthogonalLoop=1;jettySize=auto;html=1;entryX=0;entryY=0.25;entryDx=0;entryDy=0;exitX=1;exitY=0.25;exitDx=0;exitDy=0;" parent="WuY8b1AVpgEEGS5DV7i4-1" source="zNKPQ8qLzwGXQE3YcGZi-142" target="zNKPQ8qLzwGXQE3YcGZi-140" edge="1">
          <mxGeometry relative="1" as="geometry" />
        </mxCell>
        <mxCell id="zNKPQ8qLzwGXQE3YcGZi-142" value="LPF" style="rounded=0;whiteSpace=wrap;html=1;strokeColor=#00FF00;strokeWidth=2;" parent="WuY8b1AVpgEEGS5DV7i4-1" vertex="1">
          <mxGeometry x="590" y="310" width="120" height="40" as="geometry" />
        </mxCell>
        <mxCell id="zNKPQ8qLzwGXQE3YcGZi-143" style="edgeStyle=orthogonalEdgeStyle;rounded=0;orthogonalLoop=1;jettySize=auto;html=1;entryX=0;entryY=0.75;entryDx=0;entryDy=0;strokeColor=#000000;" parent="WuY8b1AVpgEEGS5DV7i4-1" source="zNKPQ8qLzwGXQE3YcGZi-145" target="zNKPQ8qLzwGXQE3YcGZi-132" edge="1">
          <mxGeometry relative="1" as="geometry">
            <Array as="points">
              <mxPoint x="570" y="340" />
              <mxPoint x="570" y="270" />
            </Array>
          </mxGeometry>
        </mxCell>
        <mxCell id="zNKPQ8qLzwGXQE3YcGZi-144" style="edgeStyle=orthogonalEdgeStyle;rounded=0;orthogonalLoop=1;jettySize=auto;html=1;entryX=0;entryY=0.75;entryDx=0;entryDy=0;strokeColor=#000000;" parent="WuY8b1AVpgEEGS5DV7i4-1" source="zNKPQ8qLzwGXQE3YcGZi-145" target="zNKPQ8qLzwGXQE3YcGZi-142" edge="1">
          <mxGeometry relative="1" as="geometry" />
        </mxCell>
        <mxCell id="zNKPQ8qLzwGXQE3YcGZi-145" value="VOUTL-" style="text;html=1;strokeColor=none;fillColor=none;align=right;verticalAlign=middle;whiteSpace=wrap;rounded=0;" parent="WuY8b1AVpgEEGS5DV7i4-1" vertex="1">
          <mxGeometry x="480" y="330" width="50" height="20" as="geometry" />
        </mxCell>
        <mxCell id="zNKPQ8qLzwGXQE3YcGZi-146" style="edgeStyle=orthogonalEdgeStyle;rounded=0;orthogonalLoop=1;jettySize=auto;html=1;entryX=0;entryY=0.25;entryDx=0;entryDy=0;" parent="WuY8b1AVpgEEGS5DV7i4-1" source="zNKPQ8qLzwGXQE3YcGZi-148" target="zNKPQ8qLzwGXQE3YcGZi-132" edge="1">
          <mxGeometry relative="1" as="geometry" />
        </mxCell>
        <mxCell id="zNKPQ8qLzwGXQE3YcGZi-147" style="edgeStyle=orthogonalEdgeStyle;rounded=0;orthogonalLoop=1;jettySize=auto;html=1;entryX=0;entryY=0.25;entryDx=0;entryDy=0;exitX=1;exitY=0.5;exitDx=0;exitDy=0;" parent="WuY8b1AVpgEEGS5DV7i4-1" source="zNKPQ8qLzwGXQE3YcGZi-148" target="zNKPQ8qLzwGXQE3YcGZi-142" edge="1">
          <mxGeometry relative="1" as="geometry">
            <Array as="points">
              <mxPoint x="550" y="250" />
              <mxPoint x="550" y="320" />
            </Array>
          </mxGeometry>
        </mxCell>
        <mxCell id="zNKPQ8qLzwGXQE3YcGZi-148" value="VOUTL+" style="text;html=1;strokeColor=none;fillColor=none;align=right;verticalAlign=middle;whiteSpace=wrap;rounded=0;" parent="WuY8b1AVpgEEGS5DV7i4-1" vertex="1">
          <mxGeometry x="480" y="240" width="50" height="20" as="geometry" />
        </mxCell>
        <mxCell id="h1ZqhhXYoJigyUY14fJf-1" style="edgeStyle=orthogonalEdgeStyle;rounded=0;orthogonalLoop=1;jettySize=auto;html=1;entryX=0;entryY=0.75;entryDx=0;entryDy=0;exitX=1;exitY=0.75;exitDx=0;exitDy=0;" parent="WuY8b1AVpgEEGS5DV7i4-1" source="zNKPQ8qLzwGXQE3YcGZi-142" target="zNKPQ8qLzwGXQE3YcGZi-140" edge="1">
          <mxGeometry relative="1" as="geometry">
            <mxPoint x="730" y="335" as="sourcePoint" />
            <mxPoint x="775.71" y="335" as="targetPoint" />
          </mxGeometry>
        </mxCell>
        <mxCell id="covhPLJUD9EjmdUTDrwi-1" value="" style="endArrow=classic;html=1;rounded=0;exitX=1;exitY=0.8;exitDx=0;exitDy=0;exitPerimeter=0;" parent="WuY8b1AVpgEEGS5DV7i4-1" source="4LS1Kl3ii9mYnfeb8qvd-20" edge="1">
          <mxGeometry width="50" height="50" relative="1" as="geometry">
            <mxPoint x="380" y="280.33" as="sourcePoint" />
            <mxPoint x="409" y="270.33" as="targetPoint" />
          </mxGeometry>
        </mxCell>
        <mxCell id="covhPLJUD9EjmdUTDrwi-4" style="edgeStyle=orthogonalEdgeStyle;rounded=0;orthogonalLoop=1;jettySize=auto;html=1;fontColor=#000000;" parent="WuY8b1AVpgEEGS5DV7i4-1" edge="1">
          <mxGeometry relative="1" as="geometry">
            <mxPoint x="410" y="240.3300000000001" as="targetPoint" />
            <Array as="points">
              <mxPoint x="410" y="240.32999999999998" />
            </Array>
            <mxPoint x="370" y="240.32999999999998" as="sourcePoint" />
          </mxGeometry>
        </mxCell>
        <mxCell id="covhPLJUD9EjmdUTDrwi-18" value="" style="endArrow=none;html=1;rounded=0;" parent="WuY8b1AVpgEEGS5DV7i4-1" edge="1">
          <mxGeometry width="50" height="50" relative="1" as="geometry">
            <mxPoint x="210" y="250.0000000000001" as="sourcePoint" />
            <mxPoint x="220" y="230.0000000000001" as="targetPoint" />
          </mxGeometry>
        </mxCell>
        <mxCell id="covhPLJUD9EjmdUTDrwi-19" value="3" style="text;html=1;strokeColor=none;fillColor=none;align=center;verticalAlign=middle;whiteSpace=wrap;rounded=0;" parent="WuY8b1AVpgEEGS5DV7i4-1" vertex="1">
          <mxGeometry x="200" y="220" width="20" height="20" as="geometry" />
        </mxCell>
        <mxCell id="4LS1Kl3ii9mYnfeb8qvd-8" style="edgeStyle=orthogonalEdgeStyle;rounded=0;orthogonalLoop=1;jettySize=auto;html=1;fontColor=#000000;" parent="WuY8b1AVpgEEGS5DV7i4-1" edge="1">
          <mxGeometry relative="1" as="geometry">
            <mxPoint x="410" y="240.32999999999998" as="targetPoint" />
            <Array as="points">
              <mxPoint x="410" y="240.32999999999998" />
            </Array>
            <mxPoint x="370" y="240.32999999999998" as="sourcePoint" />
          </mxGeometry>
        </mxCell>
        <mxCell id="4LS1Kl3ii9mYnfeb8qvd-16" value="" style="endArrow=none;html=1;rounded=0;" parent="WuY8b1AVpgEEGS5DV7i4-1" edge="1">
          <mxGeometry width="50" height="50" relative="1" as="geometry">
            <mxPoint x="210" y="250" as="sourcePoint" />
            <mxPoint x="220" y="230" as="targetPoint" />
          </mxGeometry>
        </mxCell>
        <mxCell id="4LS1Kl3ii9mYnfeb8qvd-17" value="3" style="text;html=1;strokeColor=none;fillColor=none;align=center;verticalAlign=middle;whiteSpace=wrap;rounded=0;" parent="WuY8b1AVpgEEGS5DV7i4-1" vertex="1">
          <mxGeometry x="200" y="220" width="20" height="20" as="geometry" />
        </mxCell>
        <mxCell id="4LS1Kl3ii9mYnfeb8qvd-18" value="" style="endArrow=classic;html=1;rounded=0;exitX=0;exitY=1;exitDx=0;exitDy=0;" parent="WuY8b1AVpgEEGS5DV7i4-1" source="PCr-WVekXkje4e08h1MV-271" edge="1">
          <mxGeometry width="50" height="50" relative="1" as="geometry">
            <mxPoint x="149.3800000000001" y="270.33" as="sourcePoint" />
            <mxPoint x="250" y="270.33" as="targetPoint" />
          </mxGeometry>
        </mxCell>
        <mxCell id="4LS1Kl3ii9mYnfeb8qvd-20" value="EMI reduction series resistors" style="rounded=0;whiteSpace=wrap;html=1;strokeColor=#00FFFF;strokeWidth=2;" parent="WuY8b1AVpgEEGS5DV7i4-1" vertex="1">
          <mxGeometry x="250" y="230.32999999999998" width="120" height="50" as="geometry" />
        </mxCell>
        <mxCell id="4LS1Kl3ii9mYnfeb8qvd-25" value="" style="endArrow=none;html=1;rounded=0;" parent="WuY8b1AVpgEEGS5DV7i4-1" edge="1">
          <mxGeometry width="50" height="50" relative="1" as="geometry">
            <mxPoint x="210" y="250" as="sourcePoint" />
            <mxPoint x="220" y="230" as="targetPoint" />
          </mxGeometry>
        </mxCell>
        <mxCell id="4LS1Kl3ii9mYnfeb8qvd-26" value="3" style="text;html=1;strokeColor=none;fillColor=none;align=center;verticalAlign=middle;whiteSpace=wrap;rounded=0;" parent="WuY8b1AVpgEEGS5DV7i4-1" vertex="1">
          <mxGeometry x="200" y="220" width="20" height="20" as="geometry" />
        </mxCell>
        <mxCell id="YBuq8UrZqZ8vE34yMTMc-6" style="edgeStyle=orthogonalEdgeStyle;rounded=0;orthogonalLoop=1;jettySize=auto;html=1;entryX=0;entryY=0.5;entryDx=0;entryDy=0;fontColor=#000000;exitX=1;exitY=0.25;exitDx=0;exitDy=0;" parent="WuY8b1AVpgEEGS5DV7i4-1" source="YBuq8UrZqZ8vE34yMTMc-8" target="YBuq8UrZqZ8vE34yMTMc-14" edge="1">
          <mxGeometry relative="1" as="geometry">
            <Array as="points">
              <mxPoint x="890" y="460" />
              <mxPoint x="890" y="400" />
            </Array>
          </mxGeometry>
        </mxCell>
        <mxCell id="YBuq8UrZqZ8vE34yMTMc-7" style="edgeStyle=orthogonalEdgeStyle;rounded=0;orthogonalLoop=1;jettySize=auto;html=1;entryX=0;entryY=0.5;entryDx=0;entryDy=0;" parent="WuY8b1AVpgEEGS5DV7i4-1" source="YBuq8UrZqZ8vE34yMTMc-8" target="YBuq8UrZqZ8vE34yMTMc-13" edge="1">
          <mxGeometry relative="1" as="geometry" />
        </mxCell>
        <mxCell id="YBuq8UrZqZ8vE34yMTMc-8" value="Buffer" style="rounded=0;whiteSpace=wrap;html=1;strokeColor=#00FF00;strokeWidth=2;" parent="WuY8b1AVpgEEGS5DV7i4-1" vertex="1">
          <mxGeometry x="750" y="450" width="120" height="40" as="geometry" />
        </mxCell>
        <mxCell id="YBuq8UrZqZ8vE34yMTMc-9" style="edgeStyle=orthogonalEdgeStyle;rounded=0;orthogonalLoop=1;jettySize=auto;html=1;exitX=1;exitY=0.5;exitDx=0;exitDy=0;entryX=0;entryY=0.5;entryDx=0;entryDy=0;" parent="WuY8b1AVpgEEGS5DV7i4-1" source="YBuq8UrZqZ8vE34yMTMc-10" target="YBuq8UrZqZ8vE34yMTMc-8" edge="1">
          <mxGeometry relative="1" as="geometry" />
        </mxCell>
        <mxCell id="YBuq8UrZqZ8vE34yMTMc-10" value="LPF" style="rounded=0;whiteSpace=wrap;html=1;strokeColor=#00FF00;strokeWidth=2;" parent="WuY8b1AVpgEEGS5DV7i4-1" vertex="1">
          <mxGeometry x="590" y="450" width="120" height="40" as="geometry" />
        </mxCell>
        <mxCell id="YBuq8UrZqZ8vE34yMTMc-11" style="edgeStyle=orthogonalEdgeStyle;rounded=0;orthogonalLoop=1;jettySize=auto;html=1;exitX=0.5;exitY=1;exitDx=0;exitDy=0;" parent="WuY8b1AVpgEEGS5DV7i4-1" edge="1">
          <mxGeometry relative="1" as="geometry">
            <mxPoint x="980.71" y="502.5" as="sourcePoint" />
            <mxPoint x="980.71" y="502.5" as="targetPoint" />
          </mxGeometry>
        </mxCell>
        <mxCell id="YBuq8UrZqZ8vE34yMTMc-12" value="XLR" style="rounded=0;whiteSpace=wrap;html=1;strokeColor=#00FF00;strokeWidth=2;" parent="WuY8b1AVpgEEGS5DV7i4-1" vertex="1">
          <mxGeometry x="910" y="520" width="120" height="40" as="geometry" />
        </mxCell>
        <mxCell id="YBuq8UrZqZ8vE34yMTMc-13" value="6.35 mm Jack" style="rounded=0;whiteSpace=wrap;html=1;strokeColor=#00FF00;strokeWidth=2;" parent="WuY8b1AVpgEEGS5DV7i4-1" vertex="1">
          <mxGeometry x="910" y="450" width="120" height="40" as="geometry" />
        </mxCell>
        <mxCell id="YBuq8UrZqZ8vE34yMTMc-14" value="RCA" style="rounded=0;whiteSpace=wrap;html=1;strokeColor=#00FF00;strokeWidth=2;" parent="WuY8b1AVpgEEGS5DV7i4-1" vertex="1">
          <mxGeometry x="910" y="380" width="120" height="40" as="geometry" />
        </mxCell>
        <mxCell id="YBuq8UrZqZ8vE34yMTMc-15" style="edgeStyle=orthogonalEdgeStyle;rounded=0;orthogonalLoop=1;jettySize=auto;html=1;exitX=0.5;exitY=1;exitDx=0;exitDy=0;" parent="WuY8b1AVpgEEGS5DV7i4-1" edge="1">
          <mxGeometry relative="1" as="geometry">
            <mxPoint x="990.71" y="512.5" as="sourcePoint" />
            <mxPoint x="990.71" y="512.5" as="targetPoint" />
          </mxGeometry>
        </mxCell>
        <mxCell id="YBuq8UrZqZ8vE34yMTMc-16" style="edgeStyle=orthogonalEdgeStyle;rounded=0;orthogonalLoop=1;jettySize=auto;html=1;exitX=1;exitY=0.25;exitDx=0;exitDy=0;entryX=0;entryY=0.25;entryDx=0;entryDy=0;" parent="WuY8b1AVpgEEGS5DV7i4-1" source="YBuq8UrZqZ8vE34yMTMc-18" target="YBuq8UrZqZ8vE34yMTMc-12" edge="1">
          <mxGeometry relative="1" as="geometry" />
        </mxCell>
        <mxCell id="YBuq8UrZqZ8vE34yMTMc-17" style="edgeStyle=orthogonalEdgeStyle;rounded=0;orthogonalLoop=1;jettySize=auto;html=1;exitX=1;exitY=0.75;exitDx=0;exitDy=0;entryX=0;entryY=0.75;entryDx=0;entryDy=0;" parent="WuY8b1AVpgEEGS5DV7i4-1" source="YBuq8UrZqZ8vE34yMTMc-18" target="YBuq8UrZqZ8vE34yMTMc-12" edge="1">
          <mxGeometry relative="1" as="geometry" />
        </mxCell>
        <mxCell id="YBuq8UrZqZ8vE34yMTMc-18" value="Buffer" style="rounded=0;whiteSpace=wrap;html=1;strokeColor=#00FF00;strokeWidth=2;" parent="WuY8b1AVpgEEGS5DV7i4-1" vertex="1">
          <mxGeometry x="750" y="520" width="120" height="40" as="geometry" />
        </mxCell>
        <mxCell id="YBuq8UrZqZ8vE34yMTMc-19" style="edgeStyle=orthogonalEdgeStyle;rounded=0;orthogonalLoop=1;jettySize=auto;html=1;entryX=0;entryY=0.25;entryDx=0;entryDy=0;exitX=1;exitY=0.25;exitDx=0;exitDy=0;" parent="WuY8b1AVpgEEGS5DV7i4-1" source="YBuq8UrZqZ8vE34yMTMc-20" target="YBuq8UrZqZ8vE34yMTMc-18" edge="1">
          <mxGeometry relative="1" as="geometry" />
        </mxCell>
        <mxCell id="YBuq8UrZqZ8vE34yMTMc-20" value="LPF" style="rounded=0;whiteSpace=wrap;html=1;strokeColor=#00FF00;strokeWidth=2;" parent="WuY8b1AVpgEEGS5DV7i4-1" vertex="1">
          <mxGeometry x="590" y="520" width="120" height="40" as="geometry" />
        </mxCell>
        <mxCell id="YBuq8UrZqZ8vE34yMTMc-21" style="edgeStyle=orthogonalEdgeStyle;rounded=0;orthogonalLoop=1;jettySize=auto;html=1;entryX=0;entryY=0.75;entryDx=0;entryDy=0;strokeColor=#000000;" parent="WuY8b1AVpgEEGS5DV7i4-1" source="YBuq8UrZqZ8vE34yMTMc-23" target="YBuq8UrZqZ8vE34yMTMc-10" edge="1">
          <mxGeometry relative="1" as="geometry">
            <Array as="points">
              <mxPoint x="570" y="550" />
              <mxPoint x="570" y="480" />
            </Array>
          </mxGeometry>
        </mxCell>
        <mxCell id="YBuq8UrZqZ8vE34yMTMc-22" style="edgeStyle=orthogonalEdgeStyle;rounded=0;orthogonalLoop=1;jettySize=auto;html=1;entryX=0;entryY=0.75;entryDx=0;entryDy=0;strokeColor=#000000;" parent="WuY8b1AVpgEEGS5DV7i4-1" source="YBuq8UrZqZ8vE34yMTMc-23" target="YBuq8UrZqZ8vE34yMTMc-20" edge="1">
          <mxGeometry relative="1" as="geometry" />
        </mxCell>
        <mxCell id="YBuq8UrZqZ8vE34yMTMc-23" value="VOUTR-" style="text;html=1;strokeColor=none;fillColor=none;align=right;verticalAlign=middle;whiteSpace=wrap;rounded=0;" parent="WuY8b1AVpgEEGS5DV7i4-1" vertex="1">
          <mxGeometry x="480" y="540" width="50" height="20" as="geometry" />
        </mxCell>
        <mxCell id="YBuq8UrZqZ8vE34yMTMc-24" style="edgeStyle=orthogonalEdgeStyle;rounded=0;orthogonalLoop=1;jettySize=auto;html=1;entryX=0;entryY=0.25;entryDx=0;entryDy=0;" parent="WuY8b1AVpgEEGS5DV7i4-1" source="YBuq8UrZqZ8vE34yMTMc-26" target="YBuq8UrZqZ8vE34yMTMc-10" edge="1">
          <mxGeometry relative="1" as="geometry" />
        </mxCell>
        <mxCell id="YBuq8UrZqZ8vE34yMTMc-25" style="edgeStyle=orthogonalEdgeStyle;rounded=0;orthogonalLoop=1;jettySize=auto;html=1;entryX=0;entryY=0.25;entryDx=0;entryDy=0;exitX=1;exitY=0.5;exitDx=0;exitDy=0;" parent="WuY8b1AVpgEEGS5DV7i4-1" source="YBuq8UrZqZ8vE34yMTMc-26" target="YBuq8UrZqZ8vE34yMTMc-20" edge="1">
          <mxGeometry relative="1" as="geometry">
            <Array as="points">
              <mxPoint x="550" y="460" />
              <mxPoint x="550" y="530" />
            </Array>
          </mxGeometry>
        </mxCell>
        <mxCell id="YBuq8UrZqZ8vE34yMTMc-26" value="VOUTR+" style="text;html=1;strokeColor=none;fillColor=none;align=right;verticalAlign=middle;whiteSpace=wrap;rounded=0;" parent="WuY8b1AVpgEEGS5DV7i4-1" vertex="1">
          <mxGeometry x="480" y="450" width="50" height="20" as="geometry" />
        </mxCell>
        <mxCell id="YBuq8UrZqZ8vE34yMTMc-27" style="edgeStyle=orthogonalEdgeStyle;rounded=0;orthogonalLoop=1;jettySize=auto;html=1;entryX=0;entryY=0.75;entryDx=0;entryDy=0;exitX=1;exitY=0.75;exitDx=0;exitDy=0;" parent="WuY8b1AVpgEEGS5DV7i4-1" source="YBuq8UrZqZ8vE34yMTMc-20" target="YBuq8UrZqZ8vE34yMTMc-18" edge="1">
          <mxGeometry relative="1" as="geometry">
            <mxPoint x="730" y="545" as="sourcePoint" />
            <mxPoint x="775.71" y="545" as="targetPoint" />
          </mxGeometry>
        </mxCell>
        <mxCell id="iFgFG36FhSQu7wTXoOFE-114" value="&lt;div&gt;&lt;br&gt;&lt;br&gt;&lt;p class=&quot;MsoNormal&quot;&gt;&lt;br&gt;&lt;/p&gt;&lt;br&gt;&lt;/div&gt;" style="rounded=0;whiteSpace=wrap;html=1;strokeColor=#00FF00;strokeWidth=2;" parent="WuY8b1AVpgEEGS5DV7i4-1" vertex="1">
          <mxGeometry x="410" y="600" width="120" height="180" as="geometry" />
        </mxCell>
        <mxCell id="iFgFG36FhSQu7wTXoOFE-126" value="VOUTL-" style="text;html=1;strokeColor=none;fillColor=none;align=right;verticalAlign=middle;whiteSpace=wrap;rounded=0;" parent="WuY8b1AVpgEEGS5DV7i4-1" vertex="1">
          <mxGeometry x="480" y="660" width="50" height="20" as="geometry" />
        </mxCell>
        <mxCell id="iFgFG36FhSQu7wTXoOFE-127" value="VOUTL+" style="text;html=1;strokeColor=none;fillColor=none;align=right;verticalAlign=middle;whiteSpace=wrap;rounded=0;" parent="WuY8b1AVpgEEGS5DV7i4-1" vertex="1">
          <mxGeometry x="480" y="640" width="50" height="20" as="geometry" />
        </mxCell>
        <mxCell id="iFgFG36FhSQu7wTXoOFE-168" value="XLR" style="rounded=0;whiteSpace=wrap;html=1;strokeColor=#00FF00;strokeWidth=2;" parent="WuY8b1AVpgEEGS5DV7i4-1" vertex="1">
          <mxGeometry x="910" y="640.0000000000001" width="120" height="40" as="geometry" />
        </mxCell>
        <mxCell id="iFgFG36FhSQu7wTXoOFE-169" style="edgeStyle=orthogonalEdgeStyle;rounded=0;orthogonalLoop=1;jettySize=auto;html=1;exitX=1;exitY=0.25;exitDx=0;exitDy=0;entryX=0;entryY=0.25;entryDx=0;entryDy=0;" parent="WuY8b1AVpgEEGS5DV7i4-1" source="iFgFG36FhSQu7wTXoOFE-171" target="iFgFG36FhSQu7wTXoOFE-168" edge="1">
          <mxGeometry relative="1" as="geometry" />
        </mxCell>
        <mxCell id="iFgFG36FhSQu7wTXoOFE-170" style="edgeStyle=orthogonalEdgeStyle;rounded=0;orthogonalLoop=1;jettySize=auto;html=1;exitX=1;exitY=0.75;exitDx=0;exitDy=0;entryX=0;entryY=0.75;entryDx=0;entryDy=0;" parent="WuY8b1AVpgEEGS5DV7i4-1" source="iFgFG36FhSQu7wTXoOFE-171" target="iFgFG36FhSQu7wTXoOFE-168" edge="1">
          <mxGeometry relative="1" as="geometry" />
        </mxCell>
        <mxCell id="iFgFG36FhSQu7wTXoOFE-171" value="Buffer" style="rounded=0;whiteSpace=wrap;html=1;strokeColor=#00FF00;strokeWidth=2;" parent="WuY8b1AVpgEEGS5DV7i4-1" vertex="1">
          <mxGeometry x="750" y="640.0000000000001" width="120" height="40" as="geometry" />
        </mxCell>
        <mxCell id="iFgFG36FhSQu7wTXoOFE-172" style="edgeStyle=orthogonalEdgeStyle;rounded=0;orthogonalLoop=1;jettySize=auto;html=1;entryX=0;entryY=0.5;entryDx=0;entryDy=0;" parent="WuY8b1AVpgEEGS5DV7i4-1" source="iFgFG36FhSQu7wTXoOFE-173" target="iFgFG36FhSQu7wTXoOFE-171" edge="1">
          <mxGeometry relative="1" as="geometry" />
        </mxCell>
        <mxCell id="iFgFG36FhSQu7wTXoOFE-173" value="LPF" style="rounded=0;whiteSpace=wrap;html=1;strokeColor=#00FF00;strokeWidth=2;" parent="WuY8b1AVpgEEGS5DV7i4-1" vertex="1">
          <mxGeometry x="590" y="640.0000000000001" width="120" height="40" as="geometry" />
        </mxCell>
        <mxCell id="iFgFG36FhSQu7wTXoOFE-174" value="" style="endArrow=classic;html=1;rounded=0;entryX=0;entryY=0.25;entryDx=0;entryDy=0;exitX=1;exitY=0.5;exitDx=0;exitDy=0;" parent="WuY8b1AVpgEEGS5DV7i4-1" source="iFgFG36FhSQu7wTXoOFE-127" target="iFgFG36FhSQu7wTXoOFE-173" edge="1">
          <mxGeometry width="50" height="50" relative="1" as="geometry">
            <mxPoint x="530" y="720" as="sourcePoint" />
            <mxPoint x="580" y="670" as="targetPoint" />
          </mxGeometry>
        </mxCell>
        <mxCell id="iFgFG36FhSQu7wTXoOFE-175" value="" style="endArrow=classic;html=1;rounded=0;entryX=0;entryY=0.75;entryDx=0;entryDy=0;exitX=1;exitY=0.5;exitDx=0;exitDy=0;" parent="WuY8b1AVpgEEGS5DV7i4-1" source="iFgFG36FhSQu7wTXoOFE-126" target="iFgFG36FhSQu7wTXoOFE-173" edge="1">
          <mxGeometry width="50" height="50" relative="1" as="geometry">
            <mxPoint x="550" y="740" as="sourcePoint" />
            <mxPoint x="600" y="690" as="targetPoint" />
          </mxGeometry>
        </mxCell>
        <mxCell id="iFgFG36FhSQu7wTXoOFE-176" value="VOUTR-" style="text;html=1;strokeColor=none;fillColor=none;align=right;verticalAlign=middle;whiteSpace=wrap;rounded=0;" parent="WuY8b1AVpgEEGS5DV7i4-1" vertex="1">
          <mxGeometry x="480" y="730" width="50" height="20" as="geometry" />
        </mxCell>
        <mxCell id="iFgFG36FhSQu7wTXoOFE-177" value="VOUTR+" style="text;html=1;strokeColor=none;fillColor=none;align=right;verticalAlign=middle;whiteSpace=wrap;rounded=0;" parent="WuY8b1AVpgEEGS5DV7i4-1" vertex="1">
          <mxGeometry x="480" y="710" width="50" height="20" as="geometry" />
        </mxCell>
        <mxCell id="iFgFG36FhSQu7wTXoOFE-178" value="XLR" style="rounded=0;whiteSpace=wrap;html=1;strokeColor=#00FF00;strokeWidth=2;" parent="WuY8b1AVpgEEGS5DV7i4-1" vertex="1">
          <mxGeometry x="910" y="710.0000000000001" width="120" height="40" as="geometry" />
        </mxCell>
        <mxCell id="iFgFG36FhSQu7wTXoOFE-179" style="edgeStyle=orthogonalEdgeStyle;rounded=0;orthogonalLoop=1;jettySize=auto;html=1;exitX=1;exitY=0.25;exitDx=0;exitDy=0;entryX=0;entryY=0.25;entryDx=0;entryDy=0;" parent="WuY8b1AVpgEEGS5DV7i4-1" source="iFgFG36FhSQu7wTXoOFE-181" target="iFgFG36FhSQu7wTXoOFE-178" edge="1">
          <mxGeometry relative="1" as="geometry" />
        </mxCell>
        <mxCell id="iFgFG36FhSQu7wTXoOFE-180" style="edgeStyle=orthogonalEdgeStyle;rounded=0;orthogonalLoop=1;jettySize=auto;html=1;exitX=1;exitY=0.75;exitDx=0;exitDy=0;entryX=0;entryY=0.75;entryDx=0;entryDy=0;" parent="WuY8b1AVpgEEGS5DV7i4-1" source="iFgFG36FhSQu7wTXoOFE-181" target="iFgFG36FhSQu7wTXoOFE-178" edge="1">
          <mxGeometry relative="1" as="geometry" />
        </mxCell>
        <mxCell id="iFgFG36FhSQu7wTXoOFE-181" value="Buffer" style="rounded=0;whiteSpace=wrap;html=1;strokeColor=#00FF00;strokeWidth=2;" parent="WuY8b1AVpgEEGS5DV7i4-1" vertex="1">
          <mxGeometry x="750" y="710.0000000000001" width="120" height="40" as="geometry" />
        </mxCell>
        <mxCell id="iFgFG36FhSQu7wTXoOFE-182" style="edgeStyle=orthogonalEdgeStyle;rounded=0;orthogonalLoop=1;jettySize=auto;html=1;entryX=0;entryY=0.5;entryDx=0;entryDy=0;" parent="WuY8b1AVpgEEGS5DV7i4-1" source="iFgFG36FhSQu7wTXoOFE-183" target="iFgFG36FhSQu7wTXoOFE-181" edge="1">
          <mxGeometry relative="1" as="geometry" />
        </mxCell>
        <mxCell id="iFgFG36FhSQu7wTXoOFE-183" value="LPF" style="rounded=0;whiteSpace=wrap;html=1;strokeColor=#00FF00;strokeWidth=2;" parent="WuY8b1AVpgEEGS5DV7i4-1" vertex="1">
          <mxGeometry x="590" y="710.0000000000001" width="120" height="40" as="geometry" />
        </mxCell>
        <mxCell id="iFgFG36FhSQu7wTXoOFE-184" value="" style="endArrow=classic;html=1;rounded=0;entryX=0;entryY=0.25;entryDx=0;entryDy=0;exitX=1;exitY=0.5;exitDx=0;exitDy=0;" parent="WuY8b1AVpgEEGS5DV7i4-1" source="iFgFG36FhSQu7wTXoOFE-177" target="iFgFG36FhSQu7wTXoOFE-183" edge="1">
          <mxGeometry width="50" height="50" relative="1" as="geometry">
            <mxPoint x="530" y="805.08" as="sourcePoint" />
            <mxPoint x="580" y="755.08" as="targetPoint" />
          </mxGeometry>
        </mxCell>
        <mxCell id="iFgFG36FhSQu7wTXoOFE-185" value="" style="endArrow=classic;html=1;rounded=0;entryX=0;entryY=0.75;entryDx=0;entryDy=0;exitX=1;exitY=0.5;exitDx=0;exitDy=0;" parent="WuY8b1AVpgEEGS5DV7i4-1" source="iFgFG36FhSQu7wTXoOFE-176" target="iFgFG36FhSQu7wTXoOFE-183" edge="1">
          <mxGeometry width="50" height="50" relative="1" as="geometry">
            <mxPoint x="550" y="825.08" as="sourcePoint" />
            <mxPoint x="600" y="775.08" as="targetPoint" />
          </mxGeometry>
        </mxCell>
        <mxCell id="iFgFG36FhSQu7wTXoOFE-232" style="edgeStyle=orthogonalEdgeStyle;rounded=0;orthogonalLoop=1;jettySize=auto;html=1;fontColor=#000000;" parent="WuY8b1AVpgEEGS5DV7i4-1" edge="1">
          <mxGeometry relative="1" as="geometry">
            <mxPoint x="410" y="620.3299999999999" as="targetPoint" />
            <Array as="points">
              <mxPoint x="410" y="620.3299999999999" />
            </Array>
            <mxPoint x="370" y="620.3299999999999" as="sourcePoint" />
          </mxGeometry>
        </mxCell>
        <mxCell id="iFgFG36FhSQu7wTXoOFE-233" value="" style="endArrow=classic;html=1;rounded=0;fontColor=#000000;entryX=0;entryY=0.5;entryDx=0;entryDy=0;exitX=0;exitY=1;exitDx=0;exitDy=0;" parent="WuY8b1AVpgEEGS5DV7i4-1" source="iFgFG36FhSQu7wTXoOFE-234" edge="1">
          <mxGeometry width="50" height="50" relative="1" as="geometry">
            <mxPoint x="140" y="620.3299999999999" as="sourcePoint" />
            <mxPoint x="250" y="620.3299999999999" as="targetPoint" />
          </mxGeometry>
        </mxCell>
        <mxCell id="iFgFG36FhSQu7wTXoOFE-234" value="I2S (CH3/CH4)" style="text;html=1;strokeColor=none;fillColor=none;align=left;verticalAlign=middle;whiteSpace=wrap;rounded=0;fontColor=#000000;" parent="WuY8b1AVpgEEGS5DV7i4-1" vertex="1">
          <mxGeometry x="110" y="600.3299999999999" width="100" height="20" as="geometry" />
        </mxCell>
        <mxCell id="iFgFG36FhSQu7wTXoOFE-236" value="SCKI&amp;nbsp;(24 576 MHz)" style="text;html=1;strokeColor=none;fillColor=none;align=left;verticalAlign=middle;whiteSpace=wrap;rounded=0;fontColor=#000000;" parent="WuY8b1AVpgEEGS5DV7i4-1" vertex="1">
          <mxGeometry x="110" y="630.3299999999999" width="120" height="20" as="geometry" />
        </mxCell>
        <mxCell id="iFgFG36FhSQu7wTXoOFE-237" style="edgeStyle=orthogonalEdgeStyle;rounded=0;orthogonalLoop=1;jettySize=auto;html=1;exitX=0.5;exitY=1;exitDx=0;exitDy=0;fontColor=#000000;" parent="WuY8b1AVpgEEGS5DV7i4-1" edge="1">
          <mxGeometry relative="1" as="geometry">
            <mxPoint x="190" y="650" as="sourcePoint" />
            <mxPoint x="190" y="650" as="targetPoint" />
          </mxGeometry>
        </mxCell>
        <mxCell id="iFgFG36FhSQu7wTXoOFE-238" value="" style="endArrow=none;html=1;rounded=0;" parent="WuY8b1AVpgEEGS5DV7i4-1" edge="1">
          <mxGeometry width="50" height="50" relative="1" as="geometry">
            <mxPoint x="210" y="630" as="sourcePoint" />
            <mxPoint x="220" y="610" as="targetPoint" />
          </mxGeometry>
        </mxCell>
        <mxCell id="iFgFG36FhSQu7wTXoOFE-239" value="3" style="text;html=1;strokeColor=none;fillColor=none;align=center;verticalAlign=middle;whiteSpace=wrap;rounded=0;" parent="WuY8b1AVpgEEGS5DV7i4-1" vertex="1">
          <mxGeometry x="200" y="600" width="20" height="20" as="geometry" />
        </mxCell>
        <mxCell id="iFgFG36FhSQu7wTXoOFE-241" value="" style="endArrow=classic;html=1;rounded=0;exitX=1;exitY=0.8;exitDx=0;exitDy=0;exitPerimeter=0;" parent="WuY8b1AVpgEEGS5DV7i4-1" source="iFgFG36FhSQu7wTXoOFE-256" edge="1">
          <mxGeometry width="50" height="50" relative="1" as="geometry">
            <mxPoint x="380" y="660.3299999999999" as="sourcePoint" />
            <mxPoint x="409" y="650.3299999999999" as="targetPoint" />
          </mxGeometry>
        </mxCell>
        <mxCell id="iFgFG36FhSQu7wTXoOFE-242" style="edgeStyle=orthogonalEdgeStyle;rounded=0;orthogonalLoop=1;jettySize=auto;html=1;fontColor=#000000;" parent="WuY8b1AVpgEEGS5DV7i4-1" edge="1">
          <mxGeometry relative="1" as="geometry">
            <mxPoint x="410" y="620.3300000000002" as="targetPoint" />
            <Array as="points">
              <mxPoint x="410" y="620.3299999999999" />
            </Array>
            <mxPoint x="370" y="620.3299999999999" as="sourcePoint" />
          </mxGeometry>
        </mxCell>
        <mxCell id="iFgFG36FhSQu7wTXoOFE-244" value="" style="endArrow=none;html=1;rounded=0;" parent="WuY8b1AVpgEEGS5DV7i4-1" edge="1">
          <mxGeometry width="50" height="50" relative="1" as="geometry">
            <mxPoint x="210" y="630" as="sourcePoint" />
            <mxPoint x="220" y="610" as="targetPoint" />
          </mxGeometry>
        </mxCell>
        <mxCell id="iFgFG36FhSQu7wTXoOFE-245" value="3" style="text;html=1;strokeColor=none;fillColor=none;align=center;verticalAlign=middle;whiteSpace=wrap;rounded=0;" parent="WuY8b1AVpgEEGS5DV7i4-1" vertex="1">
          <mxGeometry x="200" y="600" width="20" height="20" as="geometry" />
        </mxCell>
        <mxCell id="iFgFG36FhSQu7wTXoOFE-251" style="edgeStyle=orthogonalEdgeStyle;rounded=0;orthogonalLoop=1;jettySize=auto;html=1;fontColor=#000000;" parent="WuY8b1AVpgEEGS5DV7i4-1" edge="1">
          <mxGeometry relative="1" as="geometry">
            <mxPoint x="410" y="620.3299999999999" as="targetPoint" />
            <Array as="points">
              <mxPoint x="410" y="620.3299999999999" />
            </Array>
            <mxPoint x="370" y="620.3299999999999" as="sourcePoint" />
          </mxGeometry>
        </mxCell>
        <mxCell id="iFgFG36FhSQu7wTXoOFE-253" value="" style="endArrow=none;html=1;rounded=0;" parent="WuY8b1AVpgEEGS5DV7i4-1" edge="1">
          <mxGeometry width="50" height="50" relative="1" as="geometry">
            <mxPoint x="210" y="630" as="sourcePoint" />
            <mxPoint x="220" y="610" as="targetPoint" />
          </mxGeometry>
        </mxCell>
        <mxCell id="iFgFG36FhSQu7wTXoOFE-254" value="3" style="text;html=1;strokeColor=none;fillColor=none;align=center;verticalAlign=middle;whiteSpace=wrap;rounded=0;" parent="WuY8b1AVpgEEGS5DV7i4-1" vertex="1">
          <mxGeometry x="200" y="600" width="20" height="20" as="geometry" />
        </mxCell>
        <mxCell id="iFgFG36FhSQu7wTXoOFE-255" value="" style="endArrow=classic;html=1;rounded=0;exitX=0;exitY=1;exitDx=0;exitDy=0;" parent="WuY8b1AVpgEEGS5DV7i4-1" source="iFgFG36FhSQu7wTXoOFE-236" edge="1">
          <mxGeometry width="50" height="50" relative="1" as="geometry">
            <mxPoint x="149.3800000000001" y="650.3299999999999" as="sourcePoint" />
            <mxPoint x="250" y="650.3299999999999" as="targetPoint" />
          </mxGeometry>
        </mxCell>
        <mxCell id="iFgFG36FhSQu7wTXoOFE-256" value="EMI reduction series resistors" style="rounded=0;whiteSpace=wrap;html=1;strokeColor=#00FFFF;strokeWidth=2;" parent="WuY8b1AVpgEEGS5DV7i4-1" vertex="1">
          <mxGeometry x="250" y="610.3299999999999" width="120" height="50" as="geometry" />
        </mxCell>
        <mxCell id="iFgFG36FhSQu7wTXoOFE-260" value="" style="endArrow=none;html=1;rounded=0;" parent="WuY8b1AVpgEEGS5DV7i4-1" edge="1">
          <mxGeometry width="50" height="50" relative="1" as="geometry">
            <mxPoint x="210" y="630" as="sourcePoint" />
            <mxPoint x="220" y="610" as="targetPoint" />
          </mxGeometry>
        </mxCell>
        <mxCell id="iFgFG36FhSQu7wTXoOFE-261" value="3" style="text;html=1;strokeColor=none;fillColor=none;align=center;verticalAlign=middle;whiteSpace=wrap;rounded=0;" parent="WuY8b1AVpgEEGS5DV7i4-1" vertex="1">
          <mxGeometry x="200" y="600" width="20" height="20" as="geometry" />
        </mxCell>
        <mxCell id="iFgFG36FhSQu7wTXoOFE-278" value="&lt;div&gt;&lt;br&gt;&lt;br&gt;&lt;p class=&quot;MsoNormal&quot;&gt;&lt;br&gt;&lt;/p&gt;&lt;br&gt;&lt;/div&gt;" style="rounded=0;whiteSpace=wrap;html=1;strokeColor=#00FF00;strokeWidth=2;" parent="WuY8b1AVpgEEGS5DV7i4-1" vertex="1">
          <mxGeometry x="410" y="810" width="120" height="180" as="geometry" />
        </mxCell>
        <mxCell id="iFgFG36FhSQu7wTXoOFE-280" value="VOUTL-" style="text;html=1;strokeColor=none;fillColor=none;align=right;verticalAlign=middle;whiteSpace=wrap;rounded=0;" parent="WuY8b1AVpgEEGS5DV7i4-1" vertex="1">
          <mxGeometry x="480" y="870" width="50" height="20" as="geometry" />
        </mxCell>
        <mxCell id="iFgFG36FhSQu7wTXoOFE-281" value="VOUTL+" style="text;html=1;strokeColor=none;fillColor=none;align=right;verticalAlign=middle;whiteSpace=wrap;rounded=0;" parent="WuY8b1AVpgEEGS5DV7i4-1" vertex="1">
          <mxGeometry x="480" y="850" width="50" height="20" as="geometry" />
        </mxCell>
        <mxCell id="iFgFG36FhSQu7wTXoOFE-282" value="XLR" style="rounded=0;whiteSpace=wrap;html=1;strokeColor=#00FF00;strokeWidth=2;" parent="WuY8b1AVpgEEGS5DV7i4-1" vertex="1">
          <mxGeometry x="910" y="850.0000000000001" width="120" height="40" as="geometry" />
        </mxCell>
        <mxCell id="iFgFG36FhSQu7wTXoOFE-283" style="edgeStyle=orthogonalEdgeStyle;rounded=0;orthogonalLoop=1;jettySize=auto;html=1;exitX=1;exitY=0.25;exitDx=0;exitDy=0;entryX=0;entryY=0.25;entryDx=0;entryDy=0;" parent="WuY8b1AVpgEEGS5DV7i4-1" source="iFgFG36FhSQu7wTXoOFE-285" target="iFgFG36FhSQu7wTXoOFE-282" edge="1">
          <mxGeometry relative="1" as="geometry" />
        </mxCell>
        <mxCell id="iFgFG36FhSQu7wTXoOFE-284" style="edgeStyle=orthogonalEdgeStyle;rounded=0;orthogonalLoop=1;jettySize=auto;html=1;exitX=1;exitY=0.75;exitDx=0;exitDy=0;entryX=0;entryY=0.75;entryDx=0;entryDy=0;" parent="WuY8b1AVpgEEGS5DV7i4-1" source="iFgFG36FhSQu7wTXoOFE-285" target="iFgFG36FhSQu7wTXoOFE-282" edge="1">
          <mxGeometry relative="1" as="geometry" />
        </mxCell>
        <mxCell id="iFgFG36FhSQu7wTXoOFE-285" value="Buffer" style="rounded=0;whiteSpace=wrap;html=1;strokeColor=#00FF00;strokeWidth=2;" parent="WuY8b1AVpgEEGS5DV7i4-1" vertex="1">
          <mxGeometry x="750" y="850.0000000000001" width="120" height="40" as="geometry" />
        </mxCell>
        <mxCell id="iFgFG36FhSQu7wTXoOFE-286" style="edgeStyle=orthogonalEdgeStyle;rounded=0;orthogonalLoop=1;jettySize=auto;html=1;entryX=0;entryY=0.5;entryDx=0;entryDy=0;" parent="WuY8b1AVpgEEGS5DV7i4-1" source="iFgFG36FhSQu7wTXoOFE-287" target="iFgFG36FhSQu7wTXoOFE-285" edge="1">
          <mxGeometry relative="1" as="geometry" />
        </mxCell>
        <mxCell id="iFgFG36FhSQu7wTXoOFE-287" value="LPF" style="rounded=0;whiteSpace=wrap;html=1;strokeColor=#00FF00;strokeWidth=2;" parent="WuY8b1AVpgEEGS5DV7i4-1" vertex="1">
          <mxGeometry x="590" y="850.0000000000001" width="120" height="40" as="geometry" />
        </mxCell>
        <mxCell id="iFgFG36FhSQu7wTXoOFE-288" value="" style="endArrow=classic;html=1;rounded=0;entryX=0;entryY=0.25;entryDx=0;entryDy=0;exitX=1;exitY=0.5;exitDx=0;exitDy=0;" parent="WuY8b1AVpgEEGS5DV7i4-1" source="iFgFG36FhSQu7wTXoOFE-281" target="iFgFG36FhSQu7wTXoOFE-287" edge="1">
          <mxGeometry width="50" height="50" relative="1" as="geometry">
            <mxPoint x="530" y="930" as="sourcePoint" />
            <mxPoint x="580" y="880" as="targetPoint" />
          </mxGeometry>
        </mxCell>
        <mxCell id="iFgFG36FhSQu7wTXoOFE-289" value="" style="endArrow=classic;html=1;rounded=0;entryX=0;entryY=0.75;entryDx=0;entryDy=0;exitX=1;exitY=0.5;exitDx=0;exitDy=0;" parent="WuY8b1AVpgEEGS5DV7i4-1" source="iFgFG36FhSQu7wTXoOFE-280" target="iFgFG36FhSQu7wTXoOFE-287" edge="1">
          <mxGeometry width="50" height="50" relative="1" as="geometry">
            <mxPoint x="550" y="950" as="sourcePoint" />
            <mxPoint x="600" y="900" as="targetPoint" />
          </mxGeometry>
        </mxCell>
        <mxCell id="iFgFG36FhSQu7wTXoOFE-290" value="VOUTR-" style="text;html=1;strokeColor=none;fillColor=none;align=right;verticalAlign=middle;whiteSpace=wrap;rounded=0;" parent="WuY8b1AVpgEEGS5DV7i4-1" vertex="1">
          <mxGeometry x="480" y="940" width="50" height="20" as="geometry" />
        </mxCell>
        <mxCell id="iFgFG36FhSQu7wTXoOFE-291" value="VOUTR+" style="text;html=1;strokeColor=none;fillColor=none;align=right;verticalAlign=middle;whiteSpace=wrap;rounded=0;" parent="WuY8b1AVpgEEGS5DV7i4-1" vertex="1">
          <mxGeometry x="480" y="920" width="50" height="20" as="geometry" />
        </mxCell>
        <mxCell id="iFgFG36FhSQu7wTXoOFE-292" value="XLR" style="rounded=0;whiteSpace=wrap;html=1;strokeColor=#00FF00;strokeWidth=2;" parent="WuY8b1AVpgEEGS5DV7i4-1" vertex="1">
          <mxGeometry x="910" y="920.0000000000001" width="120" height="40" as="geometry" />
        </mxCell>
        <mxCell id="iFgFG36FhSQu7wTXoOFE-293" style="edgeStyle=orthogonalEdgeStyle;rounded=0;orthogonalLoop=1;jettySize=auto;html=1;exitX=1;exitY=0.25;exitDx=0;exitDy=0;entryX=0;entryY=0.25;entryDx=0;entryDy=0;" parent="WuY8b1AVpgEEGS5DV7i4-1" source="iFgFG36FhSQu7wTXoOFE-295" target="iFgFG36FhSQu7wTXoOFE-292" edge="1">
          <mxGeometry relative="1" as="geometry" />
        </mxCell>
        <mxCell id="iFgFG36FhSQu7wTXoOFE-294" style="edgeStyle=orthogonalEdgeStyle;rounded=0;orthogonalLoop=1;jettySize=auto;html=1;exitX=1;exitY=0.75;exitDx=0;exitDy=0;entryX=0;entryY=0.75;entryDx=0;entryDy=0;" parent="WuY8b1AVpgEEGS5DV7i4-1" source="iFgFG36FhSQu7wTXoOFE-295" target="iFgFG36FhSQu7wTXoOFE-292" edge="1">
          <mxGeometry relative="1" as="geometry" />
        </mxCell>
        <mxCell id="iFgFG36FhSQu7wTXoOFE-295" value="Buffer" style="rounded=0;whiteSpace=wrap;html=1;strokeColor=#00FF00;strokeWidth=2;" parent="WuY8b1AVpgEEGS5DV7i4-1" vertex="1">
          <mxGeometry x="750" y="920.0000000000001" width="120" height="40" as="geometry" />
        </mxCell>
        <mxCell id="iFgFG36FhSQu7wTXoOFE-296" style="edgeStyle=orthogonalEdgeStyle;rounded=0;orthogonalLoop=1;jettySize=auto;html=1;entryX=0;entryY=0.5;entryDx=0;entryDy=0;" parent="WuY8b1AVpgEEGS5DV7i4-1" source="iFgFG36FhSQu7wTXoOFE-297" target="iFgFG36FhSQu7wTXoOFE-295" edge="1">
          <mxGeometry relative="1" as="geometry" />
        </mxCell>
        <mxCell id="iFgFG36FhSQu7wTXoOFE-297" value="LPF" style="rounded=0;whiteSpace=wrap;html=1;strokeColor=#00FF00;strokeWidth=2;" parent="WuY8b1AVpgEEGS5DV7i4-1" vertex="1">
          <mxGeometry x="590" y="920.0000000000001" width="120" height="40" as="geometry" />
        </mxCell>
        <mxCell id="iFgFG36FhSQu7wTXoOFE-298" value="" style="endArrow=classic;html=1;rounded=0;entryX=0;entryY=0.25;entryDx=0;entryDy=0;exitX=1;exitY=0.5;exitDx=0;exitDy=0;" parent="WuY8b1AVpgEEGS5DV7i4-1" source="iFgFG36FhSQu7wTXoOFE-291" target="iFgFG36FhSQu7wTXoOFE-297" edge="1">
          <mxGeometry width="50" height="50" relative="1" as="geometry">
            <mxPoint x="530" y="1015.0799999999999" as="sourcePoint" />
            <mxPoint x="580" y="965.08" as="targetPoint" />
          </mxGeometry>
        </mxCell>
        <mxCell id="iFgFG36FhSQu7wTXoOFE-299" value="" style="endArrow=classic;html=1;rounded=0;entryX=0;entryY=0.75;entryDx=0;entryDy=0;exitX=1;exitY=0.5;exitDx=0;exitDy=0;" parent="WuY8b1AVpgEEGS5DV7i4-1" source="iFgFG36FhSQu7wTXoOFE-290" target="iFgFG36FhSQu7wTXoOFE-297" edge="1">
          <mxGeometry width="50" height="50" relative="1" as="geometry">
            <mxPoint x="550" y="1035.08" as="sourcePoint" />
            <mxPoint x="600" y="985.08" as="targetPoint" />
          </mxGeometry>
        </mxCell>
        <mxCell id="iFgFG36FhSQu7wTXoOFE-300" style="edgeStyle=orthogonalEdgeStyle;rounded=0;orthogonalLoop=1;jettySize=auto;html=1;fontColor=#000000;" parent="WuY8b1AVpgEEGS5DV7i4-1" edge="1">
          <mxGeometry relative="1" as="geometry">
            <mxPoint x="410.0000000000002" y="830.3299999999999" as="targetPoint" />
            <Array as="points">
              <mxPoint x="410" y="830.3299999999999" />
            </Array>
            <mxPoint x="370.0000000000002" y="830.3299999999999" as="sourcePoint" />
          </mxGeometry>
        </mxCell>
        <mxCell id="iFgFG36FhSQu7wTXoOFE-301" value="" style="endArrow=classic;html=1;rounded=0;fontColor=#000000;entryX=0;entryY=0.5;entryDx=0;entryDy=0;exitX=0;exitY=1;exitDx=0;exitDy=0;" parent="WuY8b1AVpgEEGS5DV7i4-1" source="iFgFG36FhSQu7wTXoOFE-302" edge="1">
          <mxGeometry width="50" height="50" relative="1" as="geometry">
            <mxPoint x="140" y="830.3299999999999" as="sourcePoint" />
            <mxPoint x="250" y="830.3299999999999" as="targetPoint" />
          </mxGeometry>
        </mxCell>
        <mxCell id="iFgFG36FhSQu7wTXoOFE-302" value="I2S (CH5/CH6)" style="text;html=1;strokeColor=none;fillColor=none;align=left;verticalAlign=middle;whiteSpace=wrap;rounded=0;fontColor=#000000;" parent="WuY8b1AVpgEEGS5DV7i4-1" vertex="1">
          <mxGeometry x="110" y="810.3299999999999" width="100" height="20" as="geometry" />
        </mxCell>
        <mxCell id="iFgFG36FhSQu7wTXoOFE-304" value="SCKI&amp;nbsp;(24 576 MHz)" style="text;html=1;strokeColor=none;fillColor=none;align=left;verticalAlign=middle;whiteSpace=wrap;rounded=0;fontColor=#000000;" parent="WuY8b1AVpgEEGS5DV7i4-1" vertex="1">
          <mxGeometry x="110" y="840.3299999999999" width="120" height="20" as="geometry" />
        </mxCell>
        <mxCell id="iFgFG36FhSQu7wTXoOFE-305" style="edgeStyle=orthogonalEdgeStyle;rounded=0;orthogonalLoop=1;jettySize=auto;html=1;exitX=0.5;exitY=1;exitDx=0;exitDy=0;fontColor=#000000;" parent="WuY8b1AVpgEEGS5DV7i4-1" edge="1">
          <mxGeometry relative="1" as="geometry">
            <mxPoint x="190" y="860" as="sourcePoint" />
            <mxPoint x="190" y="860" as="targetPoint" />
          </mxGeometry>
        </mxCell>
        <mxCell id="iFgFG36FhSQu7wTXoOFE-306" value="" style="endArrow=none;html=1;rounded=0;" parent="WuY8b1AVpgEEGS5DV7i4-1" edge="1">
          <mxGeometry width="50" height="50" relative="1" as="geometry">
            <mxPoint x="210" y="840" as="sourcePoint" />
            <mxPoint x="220" y="820" as="targetPoint" />
          </mxGeometry>
        </mxCell>
        <mxCell id="iFgFG36FhSQu7wTXoOFE-307" value="3" style="text;html=1;strokeColor=none;fillColor=none;align=center;verticalAlign=middle;whiteSpace=wrap;rounded=0;" parent="WuY8b1AVpgEEGS5DV7i4-1" vertex="1">
          <mxGeometry x="200" y="810" width="20" height="20" as="geometry" />
        </mxCell>
        <mxCell id="iFgFG36FhSQu7wTXoOFE-309" value="" style="endArrow=classic;html=1;rounded=0;exitX=1;exitY=0.8;exitDx=0;exitDy=0;exitPerimeter=0;" parent="WuY8b1AVpgEEGS5DV7i4-1" source="iFgFG36FhSQu7wTXoOFE-324" edge="1">
          <mxGeometry width="50" height="50" relative="1" as="geometry">
            <mxPoint x="380" y="870.3299999999999" as="sourcePoint" />
            <mxPoint x="409" y="860.3299999999999" as="targetPoint" />
          </mxGeometry>
        </mxCell>
        <mxCell id="iFgFG36FhSQu7wTXoOFE-310" style="edgeStyle=orthogonalEdgeStyle;rounded=0;orthogonalLoop=1;jettySize=auto;html=1;fontColor=#000000;" parent="WuY8b1AVpgEEGS5DV7i4-1" edge="1">
          <mxGeometry relative="1" as="geometry">
            <mxPoint x="410.0000000000002" y="830.3300000000004" as="targetPoint" />
            <Array as="points">
              <mxPoint x="410" y="830.3299999999999" />
            </Array>
            <mxPoint x="370.0000000000002" y="830.3299999999999" as="sourcePoint" />
          </mxGeometry>
        </mxCell>
        <mxCell id="iFgFG36FhSQu7wTXoOFE-312" value="" style="endArrow=none;html=1;rounded=0;" parent="WuY8b1AVpgEEGS5DV7i4-1" edge="1">
          <mxGeometry width="50" height="50" relative="1" as="geometry">
            <mxPoint x="210" y="840" as="sourcePoint" />
            <mxPoint x="220" y="820" as="targetPoint" />
          </mxGeometry>
        </mxCell>
        <mxCell id="iFgFG36FhSQu7wTXoOFE-313" value="3" style="text;html=1;strokeColor=none;fillColor=none;align=center;verticalAlign=middle;whiteSpace=wrap;rounded=0;" parent="WuY8b1AVpgEEGS5DV7i4-1" vertex="1">
          <mxGeometry x="200" y="810" width="20" height="20" as="geometry" />
        </mxCell>
        <mxCell id="iFgFG36FhSQu7wTXoOFE-319" style="edgeStyle=orthogonalEdgeStyle;rounded=0;orthogonalLoop=1;jettySize=auto;html=1;fontColor=#000000;" parent="WuY8b1AVpgEEGS5DV7i4-1" edge="1">
          <mxGeometry relative="1" as="geometry">
            <mxPoint x="410.0000000000002" y="830.3299999999999" as="targetPoint" />
            <Array as="points">
              <mxPoint x="410" y="830.3299999999999" />
            </Array>
            <mxPoint x="370.0000000000002" y="830.3299999999999" as="sourcePoint" />
          </mxGeometry>
        </mxCell>
        <mxCell id="iFgFG36FhSQu7wTXoOFE-321" value="" style="endArrow=none;html=1;rounded=0;" parent="WuY8b1AVpgEEGS5DV7i4-1" edge="1">
          <mxGeometry width="50" height="50" relative="1" as="geometry">
            <mxPoint x="210" y="840" as="sourcePoint" />
            <mxPoint x="220" y="820" as="targetPoint" />
          </mxGeometry>
        </mxCell>
        <mxCell id="iFgFG36FhSQu7wTXoOFE-322" value="3" style="text;html=1;strokeColor=none;fillColor=none;align=center;verticalAlign=middle;whiteSpace=wrap;rounded=0;" parent="WuY8b1AVpgEEGS5DV7i4-1" vertex="1">
          <mxGeometry x="200" y="810" width="20" height="20" as="geometry" />
        </mxCell>
        <mxCell id="iFgFG36FhSQu7wTXoOFE-323" value="" style="endArrow=classic;html=1;rounded=0;exitX=0;exitY=1;exitDx=0;exitDy=0;" parent="WuY8b1AVpgEEGS5DV7i4-1" source="iFgFG36FhSQu7wTXoOFE-304" edge="1">
          <mxGeometry width="50" height="50" relative="1" as="geometry">
            <mxPoint x="149.3800000000001" y="860.3299999999999" as="sourcePoint" />
            <mxPoint x="250" y="860.3299999999999" as="targetPoint" />
          </mxGeometry>
        </mxCell>
        <mxCell id="iFgFG36FhSQu7wTXoOFE-324" value="EMI reduction series resistors" style="rounded=0;whiteSpace=wrap;html=1;strokeColor=#00FFFF;strokeWidth=2;" parent="WuY8b1AVpgEEGS5DV7i4-1" vertex="1">
          <mxGeometry x="250" y="820.3299999999999" width="120" height="50" as="geometry" />
        </mxCell>
        <mxCell id="iFgFG36FhSQu7wTXoOFE-328" value="" style="endArrow=none;html=1;rounded=0;" parent="WuY8b1AVpgEEGS5DV7i4-1" edge="1">
          <mxGeometry width="50" height="50" relative="1" as="geometry">
            <mxPoint x="210" y="840" as="sourcePoint" />
            <mxPoint x="220" y="820" as="targetPoint" />
          </mxGeometry>
        </mxCell>
        <mxCell id="iFgFG36FhSQu7wTXoOFE-329" value="3" style="text;html=1;strokeColor=none;fillColor=none;align=center;verticalAlign=middle;whiteSpace=wrap;rounded=0;" parent="WuY8b1AVpgEEGS5DV7i4-1" vertex="1">
          <mxGeometry x="200" y="810" width="20" height="20" as="geometry" />
        </mxCell>
      </root>
    </mxGraphModel>
  </diagram>
  <diagram id="o5eHS2SzDIA003Ggg_Nf" name="Page-2">
    <mxGraphModel dx="1036" dy="606" grid="1" gridSize="10" guides="1" tooltips="1" connect="1" arrows="1" fold="1" page="1" pageScale="1" pageWidth="850" pageHeight="1100" math="0" shadow="0">
      <root>
        <mxCell id="0" />
        <mxCell id="1" parent="0" />
      </root>
    </mxGraphModel>
  </diagram>
  <diagram id="XeFvYAIXNNaKC89NJZ-s" name="Page-3">
    <mxGraphModel dx="1434" dy="836" grid="1" gridSize="10" guides="1" tooltips="1" connect="1" arrows="1" fold="1" page="1" pageScale="1" pageWidth="850" pageHeight="1100" math="0" shadow="0">
      <root>
        <mxCell id="0" />
        <mxCell id="1" parent="0" />
      </root>
    </mxGraphModel>
  </diagram>
</mxfile>
